<?xml version="1.0" encoding="utf-8" ?>
<svg baseProfile="full" height="1029" version="1.1" width="2493" xmlns="http://www.w3.org/2000/svg" xmlns:ev="http://www.w3.org/2001/xml-events" xmlns:xlink="http://www.w3.org/1999/xlink"><defs /><polyline fill="none" points="179,712 183,796 302,816 350,821 360,819 357,749 353,735 245,722 186,711" stroke="black" stroke-width="1" /><polyline fill="none" points="652,658 652,662 653,663 653,665 654,666 654,667 656,669 656,670 660,674 661,674 662,675 663,675 665,677 666,677 667,678 669,678 670,679 683,679 684,678 687,678 688,677 693,675 697,671 697,670 699,668 699,661 697,659 693,659 691,661 691,662 690,663 689,663 687,665 686,665 685,666 672,666 671,665 668,664 662,658 662,657 660,655 659,656 658,655 656,655 654,657 653,657" stroke="black" stroke-width="1" /><polyline fill="none" points="1205,610 1179,610 1160,616 1138,629 1112,655 1082,707 1063,781 1064,857 1081,918 1098,948 1117,969 1143,985 1162,990 1209,983 1251,951 1285,894 1305,807 1301,729 1279,667 1245,627" stroke="black" stroke-width="1" /><polyline fill="none" points="792,602 791,603 791,608 792,609 792,610 793,611 793,612 795,614 795,615 796,616 803,616 804,615 803,614 803,611 798,606 798,605 796,603 795,603 794,602 793,603" stroke="black" stroke-width="1" /><polyline fill="none" points="52,583 52,586 53,587 53,589 54,590 54,591 60,597 61,597 62,598 63,598 64,599 65,599 68,601 75,601 76,600 78,600 79,599 81,599 85,595 85,594 87,592 87,589 85,586 84,587 83,587 82,588 80,588 79,589 78,589 75,591 72,591 71,590 68,590 67,589 66,589 59,582 59,581 56,578 58,576 59,576 58,576 53,581 53,582" stroke="black" stroke-width="1" /><polyline fill="none" points="550,574 547,576 555,575 571,581 583,592 595,622 591,660 579,677 563,687 547,684 532,671 526,661 522,636 537,631 566,633 572,630 583,636 591,629 586,616 573,608 589,622 586,635 576,630 523,634 522,613 531,593 546,581 561,580 539,584 526,600 521,626 526,662 537,677 553,687 570,684 588,667 594,648 595,622 583,591 572,581" stroke="black" stroke-width="1" /><polyline fill="none" points="1148,568 1111,587 1091,601 1025,668 1020,669 1012,676 1008,685 998,685 993,682 990,673 996,665 992,659 977,674 974,672 988,657 974,672 978,674 992,660 996,665 990,673 992,682 998,685 1009,685 1012,677 1020,669 1025,668 1025,671 1034,658 1092,601 1122,581" stroke="black" stroke-width="1" /><polyline fill="none" points="1214,565 1194,564 1161,571 1118,589 1091,608 1039,661 1008,702 985,693 979,693 975,701 980,693 1009,702 1025,679 1063,636 1092,608 1119,589 1161,571 1194,564" stroke="black" stroke-width="1" /><polyline fill="none" points="303,556 295,566 296,571 294,575 295,626 298,648 302,659 311,666 339,672 360,673 372,672 376,670 382,662 384,644 384,579 379,567 370,561 325,554 308,554" stroke="black" stroke-width="1" /><polyline fill="none" points="2484,552 2468,581 2459,589 2444,596 2427,628 2405,653 2388,663 2349,679 2346,710 2349,680 2352,677 2369,672 2391,662 2406,653 2427,629 2444,597 2463,587 2468,582" stroke="black" stroke-width="1" /><polyline fill="none" points="225,548 220,555 217,568 217,597 221,625 227,647 233,654 245,658 268,662 285,661 289,657 292,649 290,624 290,578 293,572 293,564 290,556 287,553 274,548 253,546 229,546" stroke="black" stroke-width="1" /><polyline fill="none" points="2275,507 2261,507 2244,513 2219,538 2197,586 2187,644 2189,707 2204,761 2220,789 2233,802 2256,812 2268,812 2288,804 2317,773 2336,724 2345,657 2339,601 2325,555 2302,522" stroke="black" stroke-width="1" /><polyline fill="none" points="2230,459 2220,460 2191,473 2168,505 2151,544 2168,506 2194,471 2226,458 2236,466 2239,477 2202,504 2167,543 2159,547 2152,546 2159,547 2168,543 2203,504 2239,478 2238,469" stroke="black" stroke-width="1" /><polyline fill="none" points="1837,441 1833,441 1831,443 1830,443 1828,445 1827,445 1825,447 1824,447 1822,449 1821,449 1818,452 1818,453 1819,454 1818,455 1819,456 1826,456 1827,455 1831,455 1832,454 1834,454 1836,452 1836,449 1837,448" stroke="black" stroke-width="1" /><polyline fill="none" points="1844,415 1843,416 1842,416 1842,418 1841,419 1842,420 1842,422 1844,424 1844,425 1845,426 1847,426 1848,427 1849,426 1850,426 1850,425 1851,424 1851,421 1850,420 1850,418 1847,415" stroke="black" stroke-width="1" /><polyline fill="none" points="2104,379 2103,380 2103,398 2109,398 2111,396 2111,395 2110,394 2111,393 2111,386 2110,385 2110,382 2109,381 2109,380 2108,379" stroke="black" stroke-width="1" /><polyline fill="none" points="315,316 315,320 314,321 317,324 318,324 319,323 320,324 324,324 325,325 327,325 328,326 335,326 336,325 340,325 341,324 342,324 341,323 341,322 342,321 343,321 342,321 341,320 340,320 339,319 335,319 334,318 331,318 330,319 327,319 325,317 323,317 321,315 320,315 319,314 318,315 316,315" stroke="black" stroke-width="1" /><polyline fill="none" points="784,303 786,303 787,304 791,304 792,305 796,305 797,306 806,306 807,307 815,307 814,306 815,305 816,305 815,304 813,304 812,303 809,303 808,302 797,302 796,301 792,301 791,300 786,300 786,301" stroke="black" stroke-width="1" /><polyline fill="none" points="385,259 368,256 359,265 346,263 335,271 315,271 303,278 294,273 282,282 261,283 255,290 248,287 229,288 228,276 224,279 230,279 227,286 225,283 225,289 214,293 202,291 216,293 237,287 256,290 264,282 278,283 293,275 303,278 311,276 315,271 336,271 346,263 356,266 369,256 379,258 372,266 369,263 374,260 367,263 370,266 375,265 379,258 384,261 377,269 358,269 343,278 331,276 327,279 320,274 318,275 324,277 322,279 314,277 319,281 324,277 327,280 319,285 332,276 348,277 362,268 376,270" stroke="black" stroke-width="1" /><polyline fill="none" points="1854,206 1857,211 1857,218 1860,225 1889,227 1907,234 1940,233 2003,237 2031,237 2033,234 2024,210 1859,203 1856,204 1855,207" stroke="black" stroke-width="1" /><polyline fill="none" points="2369,168 2370,169 2373,169 2374,170 2382,170 2383,171 2389,171 2390,172 2391,171 2392,171 2392,168 2393,167 2391,165 2390,165 2389,164 2388,164 2387,163 2386,163 2385,162 2383,162 2382,161 2376,161 2375,162 2373,162 2372,163 2371,163 2370,164 2370,167" stroke="black" stroke-width="1" /><polyline fill="none" points="635,141 637,139 638,140 639,140 640,141 650,141 651,142 655,142 656,141 656,139 655,138 655,137 653,135 652,135 651,134 650,134 649,133 648,134 647,133 644,133 643,134 641,134 639,136 639,137 638,138 636,138 637,139" stroke="black" stroke-width="1" /><polyline fill="none" points="229,86 230,87 230,91 231,92 231,93 232,94 232,101 230,103 229,102 228,103 228,110 227,111 227,113 224,116 223,116 221,118 222,118 223,119 222,120 223,121 224,121 225,122 226,122 227,121 229,121 232,118 232,117 233,116 233,114 234,113 234,104 233,103 233,102 232,101 232,93 231,92 231,91 230,90 230,87" stroke="black" stroke-width="1" /><polyline fill="none" points="2051,71 2135,125 2227,193 2252,216 2261,217 2270,231 2291,235 2302,233 2302,228 2294,235 2271,231 2266,225 2277,220 2277,214 2278,218 2268,224 2265,223 2270,216 2267,221 2262,216 2256,218 2228,193 2136,125" stroke="black" stroke-width="1" /><polyline fill="none" points="1987,71 1985,74 1992,80 1986,74 1988,71 2001,77 2050,111 2101,153 2140,192 2103,154 2061,119 1992,71" stroke="black" stroke-width="1" /><polyline fill="none" points="785,288 890,298 787,288 1083,54 1336,58 1538,79 1269,50 981,57 1269,50 1538,81 1370,60 1082,54" stroke="black" stroke-width="1" /><polyline fill="none" points="2183,219 1962,41 1608,58 1455,373 1579,81 1682,43 1979,47 2157,177 2185,279 1475,371 2167,274 2149,181 1979,53 1628,62 1457,375 1466,425 1219,501 1211,556 1220,501 1466,426 1457,376 1616,66 1973,51 2150,183 2167,273 1474,371 2174,288" stroke="black" stroke-width="1" /><polyline fill="none" points="886,0 885,80 878,96 878,120 732,245 729,232 732,222 746,210 766,207 749,209 738,215 729,227 732,246 882,118 878,118 877,112 878,96 885,80" stroke="black" stroke-width="1" /></svg>