<?xml version="1.0" encoding="utf-8" ?>
<svg baseProfile="full" height="1029" version="1.1" width="2493" xmlns="http://www.w3.org/2000/svg" xmlns:ev="http://www.w3.org/2001/xml-events" xmlns:xlink="http://www.w3.org/1999/xlink"><defs /><polyline fill="none" points="0,735 13,744 35,751 41,757 62,793 70,803 72,810 68,830 68,863 78,874 137,892 148,897 191,908 152,898 79,874 69,864 68,830 72,810 70,802 62,792 43,759 36,751 16,745 8,741 2,734 1,736" stroke="black" stroke-width="1" /><polyline fill="none" points="179,712 183,796 245,808 302,816 358,821 360,819 356,740 353,735 245,722 196,714 186,711" stroke="black" stroke-width="1" /><polyline fill="none" points="70,658 77,669 281,706 719,750 800,751 985,732 1009,717 985,732 800,751 719,750 281,706 77,669 70,659 83,656 120,674 147,667 185,686 243,695 185,686 147,667 120,674 83,656" stroke="black" stroke-width="1" /><polyline fill="none" points="652,658 652,662 653,663 653,665 654,666 654,667 656,669 656,670 660,674 661,674 662,675 663,675 665,677 666,677 667,678 669,678 670,679 683,679 684,678 687,678 688,677 689,677 690,676 691,676 692,675 693,675 697,671 697,670 699,668 699,661 697,659 693,659 691,661 691,662 690,663 689,663 687,665 686,665 685,666 672,666 671,665 670,665 669,664 668,664 662,658 662,657 660,655 659,656 658,655 656,655 654,657 653,657" stroke="black" stroke-width="1" /><polyline fill="none" points="1205,610 1179,610 1160,616 1138,629 1112,655 1094,682 1082,707 1069,747 1063,781 1061,820 1064,857 1069,883 1081,918 1098,948 1117,969 1143,985 1162,990 1183,990 1209,983 1234,967 1251,951 1272,921 1285,894 1298,851 1305,807 1306,776 1301,729 1290,691 1279,667 1262,643 1245,627 1226,616" stroke="black" stroke-width="1" /><polyline fill="none" points="792,602 791,603 791,608 792,609 792,610 793,611 793,612 795,614 795,615 796,616 803,616 804,615 803,614 803,611 798,606 798,605 796,603 795,603 794,602 793,603" stroke="black" stroke-width="1" /><polyline fill="none" points="658,591 681,590 684,592 681,590 665,590 655,592 644,605 638,617 636,649 645,671 651,678 663,686 680,689 695,682 705,670 713,649 713,628 707,611 692,596 687,594 678,601 674,601 670,596 673,601 678,601 688,594 705,609 713,628 713,649 711,657 701,675 688,686 680,689 673,689 657,682 645,670 636,649 638,618 644,606" stroke="black" stroke-width="1" /><polyline fill="none" points="52,583 52,586 53,587 53,589 54,590 54,591 60,597 61,597 62,598 63,598 64,599 65,599 66,600 67,600 68,601 75,601 76,600 78,600 79,599 81,599 85,595 85,594 87,592 87,589 86,588 86,587 85,586 84,587 83,587 82,588 80,588 79,589 78,589 77,590 76,590 75,591 72,591 71,590 68,590 67,589 66,589 59,582 59,581 56,578 58,576 59,576 58,576 53,581 53,582" stroke="black" stroke-width="1" /><polyline fill="none" points="550,574 547,576 555,575 571,581 583,592 591,606 595,622 591,660 579,677 563,687 553,687 547,684 532,671 526,661 522,636 537,631 566,633 576,630 583,636 587,635 591,629 586,616 573,608 585,616 589,622 590,629 586,635 576,630 566,633 537,631 523,634 521,631 522,613 531,593 546,581 558,582 561,580 539,584 526,600 521,626 526,662 537,677 553,687 563,687 580,677 588,667 594,648 595,622 591,606 583,591 572,581" stroke="black" stroke-width="1" /><polyline fill="none" points="1148,568 1111,587 1091,601 1072,618 1025,668 1020,669 1012,676 1011,682 1008,685 998,685 993,682 990,673 996,665 995,661 992,659 977,674 974,672 984,663 988,657 974,672 978,674 992,660 996,665 990,673 992,676 992,682 998,685 1009,685 1011,683 1012,677 1020,669 1025,668 1025,671 1034,658 1077,614 1092,601 1122,581 1127,580" stroke="black" stroke-width="1" /><polyline fill="none" points="1214,565 1194,564 1161,571 1145,576 1135,583 1128,584 1118,589 1091,608 1063,635 1039,661 1008,702 1000,698 989,696 985,693 979,693 975,701 980,693 984,693 1009,702 1025,679 1063,636 1092,608 1119,589 1131,583 1137,583 1145,576 1161,571 1194,564" stroke="black" stroke-width="1" /><polyline fill="none" points="303,556 298,561 295,566 296,567 296,571 294,575 295,576 295,596 294,597 295,600 295,626 296,627 296,636 297,637 298,648 302,659 307,664 311,666 339,672 360,673 361,672 372,672 376,670 381,665 382,662 383,645 384,644 383,642 384,641 384,632 383,631 384,629 384,625 383,624 384,579 379,567 375,563 370,561 343,557 342,556 333,556 325,554 308,554" stroke="black" stroke-width="1" /><polyline fill="none" points="2484,552 2468,581 2459,589 2446,594 2444,596 2437,612 2427,628 2417,641 2405,653 2388,663 2381,665 2368,672 2356,675 2349,679 2346,699 2346,710 2347,691 2349,687 2348,686 2349,680 2352,677 2369,672 2382,665 2391,662 2406,653 2417,642 2427,629 2438,611 2444,597 2447,594 2454,592 2463,587 2468,582 2480,562" stroke="black" stroke-width="1" /><polyline fill="none" points="225,548 220,555 218,562 218,567 217,568 217,597 218,598 221,625 224,632 227,647 233,654 245,658 249,658 254,660 267,661 268,662 281,662 282,661 285,661 289,657 292,649 291,625 290,624 290,589 291,588 290,578 293,572 293,564 290,556 287,553 274,548 263,548 262,547 254,547 253,546 229,546" stroke="black" stroke-width="1" /><polyline fill="none" points="106,538 103,541 98,554 97,588 99,600 108,616 125,630 135,631 150,626 155,620 159,606 159,588 155,578 148,578 144,580 143,578 141,581 129,581 123,579 105,581 105,594 113,612 113,609 105,594 104,586 107,581 113,579 141,581 148,578 154,578 156,580 159,588 159,606 157,614 153,622 143,629 129,631 117,624 108,615 99,599 97,588 98,554" stroke="black" stroke-width="1" /><polyline fill="none" points="830,530 829,529 824,533 815,536 812,539 809,539 802,543 796,544 767,559 757,566 749,574 743,584 743,588 748,590 761,592 768,595 774,601 779,602 781,604 782,612 787,621 786,617 781,609 781,603 777,601 779,598 783,596 785,598 785,597 781,596 776,601 774,601 773,600 774,599 773,600 771,597 766,594 757,591 745,589 743,587 743,584 749,575 758,566 768,559 786,549 788,549 797,544 803,543 807,540 812,539 817,535 823,534 828,530" stroke="black" stroke-width="1" /><polyline fill="none" points="56,518 45,531 39,546 39,575 44,590 52,603 62,610 70,611 82,606 89,599 92,592 93,585 89,544 86,530 83,527 66,518 61,520 65,518 76,523 82,527 87,533 93,585 92,592 89,598 81,606 70,611 63,610 53,603 49,598 43,587 39,575 39,546 47,529 53,521 54,522 58,519" stroke="black" stroke-width="1" /><polyline fill="none" points="2275,507 2261,507 2244,513 2219,538 2205,564 2197,586 2189,622 2187,644 2189,707 2195,735 2204,761 2220,789 2233,802 2256,812 2268,812 2288,804 2309,785 2317,773 2327,752 2336,724 2343,660 2345,657 2339,601 2325,555 2312,533 2292,514" stroke="black" stroke-width="1" /><polyline fill="none" points="2323,541 2320,533 2313,523 2304,514 2294,507 2286,503 2274,500 2265,500 2264,501 2257,500 2245,505 2236,511 2218,527 2204,557 2198,566 2197,574 2193,584 2197,574 2198,567 2204,558 2218,528 2229,517 2249,503 2257,500 2258,501 2259,500 2260,501 2265,500 2279,501 2298,510 2313,524 2320,534 2326,546" stroke="black" stroke-width="1" /><polyline fill="none" points="424,552 734,587 753,564 814,529 921,494 743,502 539,491 480,492 462,499 480,492 539,491 743,502 919,493 789,541 748,567 733,587" stroke="black" stroke-width="1" /><polyline fill="none" points="2230,459 2226,458 2220,460 2216,463 2195,470 2191,473 2168,505 2156,529 2151,544 2155,532 2168,506 2194,471 2217,463 2226,458 2236,466 2239,472 2239,477 2215,493 2202,504 2167,543 2159,547 2154,547 2153,545 2152,546 2159,547 2168,543 2203,504 2216,493 2239,478 2238,469" stroke="black" stroke-width="1" /><polyline fill="none" points="1837,441 1833,441 1831,443 1830,443 1828,445 1827,445 1825,447 1824,447 1822,449 1821,449 1818,452 1818,453 1819,454 1818,455 1819,456 1826,456 1827,455 1831,455 1832,454 1834,454 1836,452 1836,449 1837,448" stroke="black" stroke-width="1" /><polyline fill="none" points="1844,415 1843,416 1842,416 1842,418 1841,419 1842,420 1842,422 1844,424 1844,425 1845,426 1847,426 1848,427 1849,426 1850,426 1850,425 1851,424 1851,421 1850,420 1850,418 1847,415" stroke="black" stroke-width="1" /><polyline fill="none" points="2195,400 2193,419 2185,440 2154,487 2129,537 2121,559 1873,597 2122,559 2128,540 2148,499 2185,441 2193,419" stroke="black" stroke-width="1" /><polyline fill="none" points="2148,400 2145,400 2145,401 2144,402 2144,403 2140,407 2141,408 2140,409 2141,410 2141,411 2142,412 2145,412 2146,411 2147,411 2147,410 2148,409 2148,407 2149,406 2149,401" stroke="black" stroke-width="1" /><polyline fill="none" points="2200,399 2198,419 2190,442 2173,466 2171,471 2167,476 2165,481 2156,495 2134,540 2130,551 2133,543 2141,528 2143,521 2146,517 2156,496 2165,482 2167,477 2171,472 2174,465 2190,443 2198,419" stroke="black" stroke-width="1" /><polyline fill="none" points="2104,379 2103,380 2103,398 2109,398 2111,396 2111,395 2110,394 2111,393 2111,386 2110,385 2110,382 2109,381 2109,380 2108,379" stroke="black" stroke-width="1" /><polyline fill="none" points="186,362 192,368 198,368 200,370 204,371 206,370 207,371 224,371 228,374 227,375 228,379 232,381 234,384 221,390 215,385 211,384 205,385 199,384 197,385 193,383 192,381 194,384 197,385 199,384 200,385 211,384 216,386 221,390 223,390 234,384 233,383 234,382 229,379 227,376 229,372 235,373 236,371 239,370 263,369 270,364 276,365 281,363 290,369 303,369 308,371 311,370 312,371 313,369 316,370 313,369 312,370 291,369 285,364 281,363 276,365 269,364 266,367 261,369 239,370 235,372 228,373 225,371 200,370 199,368 191,367" stroke="black" stroke-width="1" /><polyline fill="none" points="1418,361 1394,384 1377,387 1076,344 661,431 569,457 486,490 572,456 661,431 1076,344 1377,387 1395,384" stroke="black" stroke-width="1" /><polyline fill="none" points="315,316 315,320 314,321 317,324 318,324 319,323 320,324 324,324 325,325 327,325 328,326 335,326 336,325 340,325 341,324 342,324 341,323 341,322 342,321 343,321 342,321 341,320 340,320 339,319 335,319 334,318 331,318 330,319 327,319 325,317 323,317 321,315 320,315 319,314 318,315 316,315" stroke="black" stroke-width="1" /><polyline fill="none" points="784,303 786,303 787,304 791,304 792,305 796,305 797,306 806,306 807,307 815,307 814,306 815,305 816,305 815,304 813,304 812,303 809,303 808,302 797,302 796,301 792,301 791,300 786,300 786,301" stroke="black" stroke-width="1" /><polyline fill="none" points="1228,342 1182,321 1038,299 905,300 879,310 1060,329 1072,337 707,411 470,481 367,490 350,484 368,490 472,481 663,422 1074,337 1067,330 1204,342 879,310 905,300 1038,299 1182,321" stroke="black" stroke-width="1" /><polyline fill="none" points="1515,280 1513,285 1513,293 1511,297 1510,304 1491,340 1484,350 1483,353 1484,355 1487,356 1490,354 1492,347 1495,344 1501,334 1503,328 1505,326 1509,317 1512,314 1516,306 1522,301 1521,296 1517,289 1517,284 1517,290 1522,300 1516,305 1514,308 1514,310 1509,316 1500,335 1492,346 1490,353 1488,355 1485,355 1483,353 1491,341 1509,307 1511,301 1511,297 1513,293 1513,286" stroke="black" stroke-width="1" /><polyline fill="none" points="385,259 368,256 359,265 355,266 346,263 340,265 335,271 315,271 310,276 303,278 297,274 294,275 294,273 282,282 261,283 255,290 248,287 229,288 227,286 230,281 228,276 224,279 226,277 230,279 227,286 225,283 227,287 214,293 202,291 216,293 222,289 248,287 251,290 256,290 264,282 278,283 285,281 293,275 303,278 311,276 315,271 336,271 341,265 346,263 356,266 362,264 369,256 379,258 372,266 369,263 374,260 367,263 370,266 375,265 379,258 384,261 377,269 358,269 351,275 343,278 331,276 327,279 320,274 318,275 321,274 324,277 318,280 314,277 319,281 324,277 327,280 319,285 332,276 348,277 362,268 376,270 385,262" stroke="black" stroke-width="1" /><polyline fill="none" points="1854,206 1857,211 1856,212 1857,218 1860,225 1871,226 1872,227 1889,227 1894,228 1907,234 1940,233 1941,234 1957,234 1958,235 1990,235 1991,236 2002,236 2003,237 2006,236 2007,237 2022,237 2023,236 2024,237 2029,236 2031,237 2033,234 2026,212 2024,210 1972,208 1971,207 1947,207 1946,206 1930,206 1929,205 1905,205 1904,204 1870,204 1869,203 1859,203 1856,204 1855,207" stroke="black" stroke-width="1" /><polyline fill="none" points="762,204 759,203 732,203 724,205 716,209 709,216 706,223 706,257 707,258 707,265 709,270 689,290 682,293 672,295 656,304 652,308 649,307 651,309 650,310 661,301 673,295 690,290 708,272 709,267 707,264 707,258 706,257 706,223 709,217 717,209 732,203 756,203 757,204" stroke="black" stroke-width="1" /><polyline fill="none" points="1522,286 1531,279 1522,284 1523,289 1529,289 1541,278 1564,271 1630,271 1654,274 1664,265 1664,257 1645,249 1567,245 1555,249 1534,269 1533,243 1550,202 1552,191 1551,199 1533,243 1534,270 1556,249 1567,245 1645,249 1659,253 1664,258 1664,264 1658,271 1649,274 1648,272 1657,264 1656,259 1650,257 1657,263 1647,273 1564,271 1544,276 1526,290" stroke="black" stroke-width="1" /><polyline fill="none" points="2388,240 2388,235 2391,225 2392,204 2403,190 2408,191 2419,200 2428,201 2438,206 2441,210 2445,212 2451,211 2457,212 2473,223 2463,215 2455,212 2451,206 2453,203 2462,209 2468,210 2471,214 2469,216 2471,214 2468,210 2465,210 2459,207 2451,200 2445,198 2443,199 2442,198 2443,197 2442,198 2434,197 2427,190 2420,187 2433,197 2450,200 2453,203 2451,205 2452,210 2450,212 2445,212 2433,203 2428,201 2419,200 2416,197 2419,192 2416,197 2409,191 2402,190 2392,203 2391,225 2388,235" stroke="black" stroke-width="1" /><polyline fill="none" points="2369,168 2370,169 2373,169 2374,170 2382,170 2383,171 2389,171 2390,172 2391,171 2392,171 2392,168 2393,167 2391,165 2390,165 2389,164 2388,164 2387,163 2386,163 2385,162 2383,162 2382,161 2376,161 2375,162 2373,162 2372,163 2371,163 2370,164 2370,167" stroke="black" stroke-width="1" /><polyline fill="none" points="633,165 623,157 620,163 615,168 611,170 603,171 594,176 591,173 594,169 600,167 605,163 611,166 610,167 612,165 604,163 593,170 590,170 588,168 573,170 573,171 576,169 588,168 591,172 587,174 585,177 582,178 581,176 580,178 577,178 568,182 564,182 560,184 555,190 544,191 541,194 533,197 526,204 526,206 535,196 546,191 550,191 554,196 559,195 555,196 551,192 557,189 560,193 561,192 562,193 556,188 559,185 581,177 582,178 585,177 587,179 586,180 588,179 585,177 590,173 595,177 591,182 586,185 585,190 586,186 592,182 599,173 616,168 620,164 623,158" stroke="black" stroke-width="1" /><polyline fill="none" points="261,157 260,158 260,160 259,161 261,163 261,164 263,166 263,167 264,168 264,169 265,170 265,171 266,171 265,170 265,169 264,168 264,167 263,166 263,165 265,163 266,163 269,160 269,159 270,158 269,159 268,158 268,157" stroke="black" stroke-width="1" /><polyline fill="none" points="1796,152 1793,153 1784,145 1775,144 1774,143 1765,144 1746,153 1736,163 1727,168 1714,181 1694,194 1668,197 1654,201 1644,211 1657,200 1668,197 1673,197 1674,196 1689,195 1699,192 1715,181 1728,168 1737,163 1747,153 1763,145 1771,144 1772,143 1780,144 1786,147 1793,154 1796,153" stroke="black" stroke-width="1" /><polyline fill="none" points="635,141 637,139 638,140 639,140 640,141 650,141 651,142 655,142 656,141 656,139 655,138 655,137 653,135 652,135 651,134 650,134 649,133 648,134 647,133 644,133 643,134 641,134 639,136 639,137 638,138 636,138 637,139" stroke="black" stroke-width="1" /><polyline fill="none" points="709,111 709,113 708,114 709,113 710,114 710,115 712,117 713,117 714,116 715,117 717,117 718,116 719,117 721,117 718,114 718,111 714,107 714,108 713,109 711,109" stroke="black" stroke-width="1" /><polyline fill="none" points="229,86 230,87 230,91 231,92 231,93 232,94 232,101 230,103 229,102 228,103 228,110 227,111 227,113 224,116 223,116 221,118 222,118 223,119 222,120 223,121 224,121 225,122 226,122 227,121 229,121 232,118 232,117 233,116 233,114 234,113 234,104 233,103 233,102 232,101 232,93 231,92 231,91 230,90 230,87" stroke="black" stroke-width="1" /><polyline fill="none" points="1556,81 1553,84 1549,98 1482,262 1434,365 1478,272 1537,124 1548,101 1553,84" stroke="black" stroke-width="1" /><polyline fill="none" points="1549,79 1545,96 1530,129 1529,135 1514,168 1513,174 1505,190 1501,204 1484,241 1478,259 1456,304 1453,314 1449,319 1442,339 1434,350 1439,346 1449,319 1463,293 1479,257 1482,246 1494,222 1502,198 1545,96" stroke="black" stroke-width="1" /><polyline fill="none" points="2051,71 2135,125 2227,193 2255,218 2261,217 2266,224 2266,228 2270,231 2291,235 2302,233 2302,228 2299,233 2294,235 2271,231 2266,225 2279,218 2277,214 2278,218 2268,224 2265,223 2271,218 2270,216 2271,218 2267,221 2264,221 2262,216 2256,218 2228,193 2224,192 2136,125 2067,79" stroke="black" stroke-width="1" /><polyline fill="none" points="1987,71 1985,74 1992,80 1986,74 1988,71 1991,71 2001,77 2050,111 2101,153 2140,192 2132,182 2103,154 2085,138 2063,122 2061,119 2002,77 1992,71" stroke="black" stroke-width="1" /><polyline fill="none" points="1771,61 1735,62 1669,70 1630,78 1613,85 1597,99 1588,114 1559,184 1555,201 1579,208 1647,202 1579,208 1565,206 1555,200 1583,125 1597,100 1614,85 1647,74 1698,66 1769,60 1789,121 1795,150" stroke="black" stroke-width="1" /><polyline fill="none" points="38,75 39,75 42,72 42,70 43,69 42,68 42,65 43,63 47,61 49,59 53,63 56,70 61,72 64,75 67,80 77,89 79,90 78,89 79,88 90,88 92,89 99,96 97,98 95,98 91,95 86,93 85,91 83,94 81,94 86,93 90,95 92,97 94,97 95,98 98,98 98,97 100,95 104,97 108,97 104,97 103,96 99,95 93,89 91,88 77,88 66,78 66,77 62,72 56,69 55,66 53,64 53,62 49,59 50,58 49,58 48,56 49,58 43,63 42,65 42,68 43,69" stroke="black" stroke-width="1" /><polyline fill="none" points="776,53 776,54 774,56 774,57 773,58 773,60 772,61 773,62 773,63 774,64 775,63 776,64 776,66 775,67 776,66 778,68 776,66 776,65 779,62 779,55 778,54 778,53 778,54 777,55 776,54" stroke="black" stroke-width="1" /><polyline fill="none" points="1776,52 1753,56 1694,60 1646,68 1626,73 1607,82 1594,95 1583,113 1554,187 1583,114 1594,96 1608,82 1624,74 1646,68 1694,60 1753,56" stroke="black" stroke-width="1" /><polyline fill="none" points="785,288 890,298 787,288 1001,109 1083,54 1336,58 1538,79 1440,61 1269,50 1090,48 981,57 1090,48 1269,50 1458,63 1538,81 1370,60 1082,54 1000,109" stroke="black" stroke-width="1" /><polyline fill="none" points="458,45 457,44 456,44 455,43 454,43 453,44 452,44 450,46 451,47 451,48 450,49 450,50 456,50 458,48 458,47 457,46" stroke="black" stroke-width="1" /><polyline fill="none" points="972,41 971,40 975,47 975,48 973,50 972,50 970,52 969,52 964,56 961,57 956,61 955,61 954,62 953,62 951,64 948,65 946,67 947,68 947,71 943,75 942,75 934,82 931,83 928,86 927,86 921,92 920,92 917,95 916,95 912,99 913,98 914,98 917,95 918,95 921,92 922,92 929,85 930,85 932,83 933,83 935,81 936,81 938,79 939,79 944,74 945,74 945,73 947,71 947,67 949,65 950,65 952,63 957,61 962,57 965,56 967,54 968,54 970,52 971,52 973,50 974,50 976,48 974,46" stroke="black" stroke-width="1" /><polyline fill="none" points="1020,37 1016,37 1015,38 1009,38 1008,39 1005,39 981,51 973,58 965,62 963,64 959,66 956,69 955,69 947,77 946,77 937,85 936,85 933,88 932,88 929,91 928,91 925,94 924,94 921,97 921,98 925,94 926,94 929,91 930,91 933,88 934,88 937,85 938,85 948,76 949,76 956,69 957,69 960,66 961,66 966,62 974,58 979,53 980,53 988,47 990,47 993,45 995,45 1003,41 1005,39 1008,39 1009,38 1015,38 1016,37" stroke="black" stroke-width="1" /><polyline fill="none" points="2183,219 2107,131 1962,41 1608,58 1565,107 1455,373 1579,81 1682,43 1979,47 2157,177 2185,279 1475,371 2167,274 2149,181 1979,53 1628,62 1586,92 1457,375 1466,425 1219,501 1211,556 1220,501 1466,426 1457,376 1616,66 1973,51 2150,183 2167,273 1474,371 2174,288" stroke="black" stroke-width="1" /><polyline fill="none" points="2383,18 2376,11 2375,11 2373,8 2369,6 2367,6 2365,4 2363,4 2362,3 2360,4 2352,12 2350,13 2349,12 2345,12 2343,13 2339,17 2338,17 2331,24 2331,29 2333,31 2336,31 2337,32 2341,30 2343,31 2346,31 2347,32 2350,32 2353,30 2356,30 2357,29 2361,32 2365,32 2366,31 2366,28 2364,27 2360,27 2360,28 2358,30 2357,29 2356,30 2352,30 2349,32 2347,32 2344,30 2343,31 2341,30 2337,32 2336,31 2334,31 2331,28 2331,25 2343,13 2345,12 2349,12 2350,13 2351,12 2353,12 2362,3 2366,6 2368,6 2372,8 2380,16 2381,18" stroke="black" stroke-width="1" /><polyline fill="none" points="1163,2 1162,3 1162,6 1163,7 1163,8 1164,9 1169,9 1170,8 1169,7 1170,6 1166,2 1165,3 1164,3" stroke="black" stroke-width="1" /><polyline fill="none" points="886,0 885,80 878,96 878,120 818,169 735,245 732,245 729,232 732,222 746,210 766,207 749,209 738,215 729,227 732,246 736,245 819,169 882,118 878,118 877,112 879,107 878,96 885,80" stroke="black" stroke-width="1" /></svg>